<svg xmlns="http://www.w3.org/2000/svg" viewBox="0 0 512 512">
  <defs>
    <linearGradient id="bg" x1="0%" y1="0%" x2="100%" y2="100%">
      <stop offset="0%" style="stop-color:#6366f1"/>
      <stop offset="100%" style="stop-color:#8b5cf6"/>
    </linearGradient>
  </defs>
  
  <!-- Background -->
  <rect width="512" height="512" rx="108" fill="url(#bg)"/>
  
  <!-- Moon -->
  <path d="M320 156c-77.3 0-140 62.7-140 140s62.7 140 140 140c22.1 0 43-5.1 61.6-14.2-24.8 9.3-52.1 14.2-80.6 14.2-77.3 0-140-62.7-140-140s62.7-140 140-140c28.5 0 55.8 4.9 80.6 14.2C363 161.1 342.1 156 320 156z" fill="white" opacity="0.95"/>
  
  <!-- Stars -->
  <circle cx="180" cy="140" r="8" fill="white" opacity="0.8"/>
  <circle cx="140" cy="200" r="5" fill="white" opacity="0.6"/>
  <circle cx="200" cy="100" r="6" fill="white" opacity="0.7"/>
  <circle cx="120" cy="280" r="4" fill="white" opacity="0.5"/>
  <circle cx="160" cy="340" r="6" fill="white" opacity="0.6"/>
  
  <!-- Z letters -->
  <text x="380" y="180" font-family="Arial, sans-serif" font-size="48" font-weight="bold" fill="white" opacity="0.9">z</text>
  <text x="400" y="140" font-family="Arial, sans-serif" font-size="36" font-weight="bold" fill="white" opacity="0.7">z</text>
  <text x="415" y="110" font-family="Arial, sans-serif" font-size="28" font-weight="bold" fill="white" opacity="0.5">z</text>
</svg>
